<?xml version="1.0" encoding="utf-8"?>
<!-- Generator: Adobe Illustrator 19.2.0, SVG Export Plug-In . SVG Version: 6.00 Build 0)  -->
<svg version="1.1" id="Layer_1" xmlns="http://www.w3.org/2000/svg" xmlns:xlink="http://www.w3.org/1999/xlink" x="0px" y="0px"
	 viewBox="0 0 1920 1081" style="enable-background:new 0 0 1920 1081;" xml:space="preserve">
<style type="text/css">
	.st0{fill:#F8C09D;}
	.st1{fill:#1561A0;}
	.st2{fill:#F2F2F2;}
	.st3{fill:#065082;}
	.st4{fill:#22B573;}
	.st5{fill:#1B965B;}
	.st6{fill:#F6AE8D;}
	.st7{fill:#333333;}
	.st8{fill:#EF937E;}
	.st9{fill:#AF4135;}
	.st10{fill:#FFFFFF;}
	.st11{fill:none;stroke:#333333;stroke-width:4;stroke-linejoin:round;stroke-miterlimit:10;}
	.st12{fill:#4D4D4D;}
	.st13{fill:#B3B3B3;}
</style>
<polygon class="st0" points="744.6,881.9 716.7,859.9 874.2,658.6 918.9,693.9 "/>
<path class="st1" d="M737.8,821.6c-1.2-12.7-13.5-21.3-25.6-18.8c0,0-9.2,2.1-11.1,2.6c-11.9,2.5,9.7,92.9,18.6,91l0,0
	c2.2-0.5,9.3-2.1,11.3-2.2v0c9-2.5,16.2-12.5,13.7-22.5c-1-4-4-12.9-4.8-18.1C738.4,843.8,738.9,833.7,737.8,821.6z"/>
<path class="st2" d="M719.7,896.1L719.7,896.1c-9.4,2-18.7-3.7-21.3-12.9l-13.5-51.9c-3.1-11.8,4.3-23.7,16.2-26.3h0
	c12.5-2.7,24.5,6.2,25.7,18.9c1.1,12.1,0.5,22.1,2,31.9c0.8,5.2,3.8,14,4.8,18C736,883.8,729.8,893.9,719.7,896.1z"/>
<path class="st0" d="M1096.5,598.8L1096.5,598.8c-7.9,6.5-19.5,5.3-26-2.6l-87-106.3c-6.5-7.9-5.3-19.5,2.6-26l0,0
	c7.9-6.5,19.5-5.3,26,2.6l87,106.3C1105.5,580.7,1104.3,592.3,1096.5,598.8z"/>
<path class="st3" d="M1018.1,563.9l52.8-41l-43.3-55.7c-11.3-14.6-32.3-17.2-46.9-5.9l0,0c-14.6,11.3-17.2,32.3-5.9,46.9
	L1018.1,563.9z"/>
<path class="st0" d="M742.6,378.9L742.6,378.9c-6.4,7.9-5.1,19.6,2.9,25.9L861,497.4c7.9,6.4,19.6,5.1,25.9-2.9l0,0
	c6.4-7.9,5.1-19.6-2.9-25.9L768.6,376C760.6,369.7,749,370.9,742.6,378.9z"/>
<path class="st3" d="M784.7,463.1l44.8-49.7l52.8,47.6c13.5,12.1,14.6,32.9,2.4,46.4l0,0c-12.6,13.9-34.1,15.1-48,2.5L784.7,463.1z"
	/>
<g>
	<path class="st4" d="M869.2,767.8c-1.5,2-3.7,3.3-6.2,3.5c-6.3,0.5-20,0.2-40.6-7.4c-17-6.2-25.5-12.7-29.7-17.3
		c-2.8-3.1-3-7.8-0.4-11l68.9-98.1l100.1,19.6L869.2,767.8z"/>
	<path class="st5" d="M795.3,731.6c0,0,21.1,14.3,38.5,19.9c23.7,7.6,41.7,8.8,41.7,8.8l10.3-12.5c0,0-24.9-3.6-43.6-10.3
		c-17-6.1-38.2-18.3-38.2-18.3L795.3,731.6z"/>
</g>
<path class="st4" d="M966.6,696.2h-47c-32.5,0-58.8-26.3-58.8-58.8v0h164.6v0C1025.4,669.9,999.1,696.2,966.6,696.2z"/>
<path class="st1" d="M1025,638.7c0,0-20.2,18.5-82.2,18.5s-82-18.5-82-18.5l0.1-152.4c0-15.8,12.8-28.6,28.6-28.6h107.1
	c15.8,0,28.6,12.8,28.6,28.6L1025,638.7z"/>
<path class="st3" d="M918.7,469l-3.1,1.8c-7.1,4.1-10,12.9-6.7,20.5c5.6,12.8,18.2,21.9,33,22.3v0c15.9,0.4,29.5-8.9,35.2-22.5
	c3-7.3,0.3-15.7-6.4-19.9l-3.3-2.1H918.7z"/>
<path class="st0" d="M942.4,501.4L942.4,501.4c-13.3-0.3-24-11.3-23.9-24.6l0.1-23.1l49,1.3l-0.1,22.1
	C967.4,490.7,956.1,501.7,942.4,501.4z"/>
<path class="st6" d="M918.5,472c7.8,2.8,16,4.2,24.2,4.2c8.4,0,16.8-1.6,24.8-4.4l0.1-9.9l-49-1.3L918.5,472z"/>
<path class="st0" d="M942.7,465.8c-36.2,0-72.5-28.7-72.5-69.1V275.5h145.4v121.3C1015.6,437,978.9,465.8,942.7,465.8z"/>
<rect x="853.1" y="329.3" class="st7" width="34.2" height="36.8"/>
<circle class="st0" cx="869.9" cy="364" r="20.7"/>
<path class="st8" d="M865.7,366.9c0-4,3.3-7.3,7.3-7.3c1.1,0,2.2,0.3,3.1,0.7c-1.3-2.2-3.6-3.6-6.3-3.6c-4,0-7.3,3.3-7.3,7.3
	c0,2.9,1.7,5.4,4.2,6.6C866.1,369.5,865.7,368.3,865.7,366.9z"/>
<path class="st7" d="M1011.6,275.5h7.3c7.6,0,13.8,6.2,13.8,13.8v67.4h-21.2V275.5z"/>
<path class="st8" d="M944.6,375.1v15c0,0.7,0.8,1.2,1.5,1.2h8.8c2.4,0,3.7-2.8,2.2-4.6L947,374.3
	C946.2,373.4,944.6,373.9,944.6,375.1z"/>
<path class="st7" d="M882.7,274.9l0,0.3l-10.1-0.1c-10.7-0.1-19.4,8.6-19.4,19.3v0v13.3v34.3l32.6,0.9l0.3-10
	c0.2-6.6,5.7-11.8,12.3-11.7l96.8,2.6c12.7,0.3,23.4-9.8,23.7-22.5C1018.9,301.5,883,262.1,882.7,274.9z"/>
<path class="st7" d="M873.8,274.9c-1.9-15.9,0.3-25,11.1-33.9c7-5.7,19.4-7.4,24-7.3c3,0.1,6.1,0.6,8.8,2.1
	c5.7,3.1,8.8,10.7,7.1,17.2c3.6-4.3,7.9-8,12.6-10.9c6-3.8,13.1-6.4,19.9-4.7c6.8,1.7,12.5,9.1,10.6,16.2c3.8-1.9,7-4.7,10.7-6.8
	c5.9-3.3,12.9-4.3,19.4-2.8c2.4,0.6,4.8,1.5,6.9,2.9c4.3,2.9,7,7.8,8.3,13c1.3,5.2,6.7,33.1-6.2,52c-1.6,2.4-12.4,0.3-15.2-0.1
	L873.8,274.9z"/>
<rect x="853.1" y="307.8" class="st1" width="179.6" height="24"/>
<circle class="st0" cx="1015.2" cy="364" r="20.7"/>
<path class="st8" d="M1022,366.9c0-4-3.3-7.3-7.3-7.3c-1.1,0-2.2,0.3-3.1,0.7c1.3-2.2,3.6-3.6,6.3-3.6c4,0,7.3,3.3,7.3,7.3
	c0,2.9-1.7,5.4-4.2,6.6C1021.7,369.5,1022,368.3,1022,366.9z"/>
<ellipse transform="matrix(1 -9.060686e-03 9.060686e-03 1 -3.2851 8.3303)" class="st7" cx="917.7" cy="366.7" rx="5" ry="8.8"/>
<ellipse transform="matrix(1 -9.060686e-03 9.060686e-03 1 -3.2772 8.9055)" class="st7" cx="981.2" cy="366.1" rx="5" ry="8.8"/>
<path class="st9" d="M928.6,437.7c-0.4,0.2-0.7,0.5-1.1,0.6c-1.7,0.7-3.8,0.6-5-0.7c-2.1-2-0.9-5.2-0.2-7.6c0.7-2.2,1.6-4.3,2.6-6.3
	c4.8-9.2,13.2-16.7,23.7-17.8c21.2-2.2,33.7,22,27.4,33.2c-0.5,0.8-1.6,1.1-2.5,1.1c-1.6-0.1-2.6-1.8-3.7-3
	c-4.4-5.1-10.7-2.5-16.6-2.6c-4.7-0.1-9.4-0.7-14.1-0.5c-2.2,0.1-4.6,0.2-6.7,0.9C930.9,435.5,929.9,436.8,928.6,437.7z"/>
<path class="st8" d="M938.2,428.2c6-4.2,15.2-6.1,23.5-1.4c6.5,3.7,10.2,8.6,11.9,18.6c2.8,16.5-18.8,24.6-21.8,10.9
	c-1.5-7-2.5-10.5-5.3-16.6c-2.6-5.7-5.1-5.4-9.5-5.3c-3.9,0.1-4.3,0.4-4.3,0.4S933,431.9,938.2,428.2z"/>
<path class="st10" d="M950.8,415.6c8.7,0.1,14.6-1.5,17.9-2.8c-5-4.7-11.9-7.8-20-7c-6.6,0.7-12,3.8-16.3,7.8
	C935.8,414.5,941.9,415.5,950.8,415.6z"/>
<path class="st0" d="M909.4,361.7c0,0,3.3,1.3,8.3,0.9c6-0.5,7.9-3.2,7.9-3.2s-3.2-7.2-8.1-6.4C912.6,353.7,909.4,361.7,909.4,361.7
	z"/>
<path class="st0" d="M989.6,360.7c0,0-3.3,1.3-8.3,0.9c-6-0.5-7.9-3.2-7.9-3.2s3.2-7.2,8.1-6.4C986.4,352.7,989.6,360.7,989.6,360.7
	z"/>
<path class="st11" d="M906,354.1c0,0,4.9,1.2,9.8-2s5.6-5.6,5.6-5.6"/>
<path class="st11" d="M977.6,347.5c0,0,2.6,4.3,8.2,5.6c5.7,1.3,7.9,0.1,7.9,0.1"/>
<path class="st10" d="M891.2,356.9c0,0-5.5,11.6-4.7,18.7c0.8,7.2,8,5.9,8.7,0C895.8,369.7,891.2,356.9,891.2,356.9z"/>
<path class="st10" d="M879.7,380.9c0,0-3.8,8-3.3,12.9c0.5,4.9,5.5,4.1,6,0C882.9,389.7,879.7,380.9,879.7,380.9z"/>
<path class="st2" d="M947.1,324.7c-3.2-0.6-6.1-2.4-9.3-2.5c-6.1-0.2-12.3,5.3-17.6,2.4c-1.2-0.7-2.2-1.7-3.2-2.6
	c-3.9-3.4-9.3-4.9-14.5-5.1c-10.8-0.4-21.2,4-30.1-5c-2.7-2.7-4.4-7-3.8-10.9c0.6-3.7,3.1-4.4,5-7.1c5.2-7.4,6.6-19,9.4-27.5
	c2-6.3,2.5-12.4,8.6-16.3c4.4-2.9,10.6-3.2,15.1-0.4c2.5,1.6,4.3,3.9,6.6,5.7c9.9,7.6,23,4.8,34.7,4.6c2.5,0,4.9-0.1,7.3,0.4
	c7.9,1.7,12,9.4,14.3,16.5c1.3,4.1,0.2,7-0.9,11c-1.4,5.3-1.9,10.8-3,16.2c-1,4.9-2.1,9.8-4.9,13.9c-2.8,4.1-7.5,7.3-12.4,6.8
	C947.9,324.9,947.5,324.8,947.1,324.7z"/>
<path class="st0" d="M885.7,308.8l0.3,0.6c5,8.7,2,19.8-6.6,24.8L761.8,402c-8.7,5-19.8,2-24.8-6.6l-0.3-0.6c-5-8.7-2-19.8,6.6-24.8
	l117.6-67.9C869.6,297.1,880.7,300.1,885.7,308.8z"/>
<g>
	<path class="st0" d="M889.5,317.2l4.7,11.4l35.7-14.7c3.2-1.3,4.7-4.9,3.4-8.1v0c-1.3-3.2-4.9-4.7-8.1-3.4L889.5,317.2z"/>
	<path class="st0" d="M861.4,313.7c-5.4-13.4,1-28.6,14.4-34.1l0,0c1.8-0.7,3.8,0.1,4.5,1.9l24.9,38.9c0.7,1.8-0.1,3.8-1.9,4.5
		l-7.7,3.2C882.1,333.5,866.8,327.1,861.4,313.7L861.4,313.7z"/>
	<path class="st0" d="M889.5,317.2l4.7,11.4l35.7-14.7c3.2-1.3,4.7-4.9,3.4-8.1v0c-1.3-3.2-4.9-4.7-8.1-3.4L889.5,317.2z"/>
	<path class="st0" d="M885.2,305.6l4.7,11.4l43.2-17.7c3.2-1.3,4.7-4.9,3.4-8.1v0c-1.3-3.2-4.9-4.7-8.1-3.4L885.2,305.6z"/>
	<path class="st0" d="M885.9,292l4.7,11.4l43.2-17.6c3.2-1.3,4.7-4.9,3.4-8.1l0,0c-1.3-3.2-4.9-4.7-8.1-3.4L885.9,292z"/>
	<path class="st0" d="M878.3,283.5l4.1,10l40.8-16.7c2.8-1.1,4.1-4.3,2.9-7.1l0,0c-1.1-2.8-4.3-4.1-7.1-2.9L878.3,283.5z"/>
	<path class="st0" d="M863.3,290.6l10.6,6.3l14.3-24.2c1.7-2.9,0.8-6.7-2.2-8.5v0c-2.9-1.7-6.7-0.8-8.5,2.2L863.3,290.6z"/>
</g>
<polygon class="st0" points="1151.5,881.9 1179.3,859.9 1021.9,658.6 977.2,693.9 "/>
<g>
	<path class="st4" d="M1019.1,767.8c1.5,2,3.7,3.3,6.2,3.4c6.3,0.4,20,0,40.5-7.8c17-6.4,25.4-12.9,29.5-17.6
		c2.8-3.1,2.9-7.8,0.3-11l-69.9-97.3l-99.9,20.6L1019.1,767.8z"/>
	<path class="st5" d="M1092.7,730.8c0,0-20.9,14.5-38.3,20.3c-23.6,7.8-41.6,9.3-41.6,9.3l-10.4-12.4c0,0,24.9-3.9,43.5-10.8
		c17-6.3,38-18.7,38-18.7L1092.7,730.8z"/>
</g>
<path class="st1" d="M1158.2,821.6c1.2-12.7,13.5-21.3,25.6-18.8c0,0,9.2,2.1,11.1,2.6c11.9,2.5-9.8,92.9-18.6,91l0,0
	c-2.2-0.5-9.3-2.1-11.3-2.2v0c-9-2.5-16.2-12.5-13.7-22.5c1-4,4-12.9,4.8-18.1C1157.6,843.8,1157.1,833.7,1158.2,821.6z"/>
<path class="st2" d="M1176.4,896.1L1176.4,896.1c9.4,2,18.7-3.7,21.3-12.9l13.5-51.9c3.1-11.8-4.3-23.7-16.2-26.3l0,0
	c-12.5-2.7-24.5,6.2-25.7,18.9c-1.1,12.1-0.5,22.1-2,31.9c-0.8,5.2-3.8,14-4.8,18C1160,883.8,1166.3,893.9,1176.4,896.1z"/>
<path class="st0" d="M1094.8,571.4L1094.8,571.4c9.7,3.2,14.9,13.6,11.7,23.3L1066.8,715c-3.2,9.7-13.6,14.9-23.3,11.7l0,0
	c-9.7-3.2-14.9-13.6-11.7-23.3l39.7-120.3C1074.7,573.5,1085.1,568.2,1094.8,571.4z"/>
<g>
	<path class="st2" d="M1391.3,689.9h-192.6c-5.4,0-9.7-4.3-9.7-9.7l0,0c0-5.4,4.3-9.7,9.7-9.7h192.6c5.4,0,9.7,4.3,9.7,9.7l0,0
		C1401,685.6,1396.7,689.9,1391.3,689.9z"/>
	<path class="st12" d="M1351.1,725.3h-9.4c-4.7,0-8.5-3.8-8.5-8.5v-73.2c0-4.7,3.8-8.5,8.5-8.5h9.4c4.7,0,8.5,3.8,8.5,8.5v73.2
		C1359.6,721.5,1355.8,725.3,1351.1,725.3z"/>
	<path class="st12" d="M1377.4,717.9h-9.4c-4.7,0-8.5-3.8-8.5-8.5V651c0-4.7,3.8-8.5,8.5-8.5h9.4c4.7,0,8.5,3.8,8.5,8.5v58.5
		C1385.9,714.1,1382.1,717.9,1377.4,717.9z"/>
	<path class="st12" d="M1238.7,725.3h9.4c4.7,0,8.5-3.8,8.5-8.5v-73.2c0-4.7-3.8-8.5-8.5-8.5h-9.4c-4.7,0-8.5,3.8-8.5,8.5v73.2
		C1230.2,721.5,1234,725.3,1238.7,725.3z"/>
	<path class="st12" d="M1212.4,717.9h9.4c4.7,0,8.5-3.8,8.5-8.5V651c0-4.7-3.8-8.5-8.5-8.5h-9.4c-4.7,0-8.5,3.8-8.5,8.5v58.5
		C1203.9,714.1,1207.7,717.9,1212.4,717.9z"/>
	<path class="st13" d="M1333.3,697.5h-2.5c-2.4,0-4.4-2-4.4-4.4v-25.9c0-2.4,2-4.4,4.4-4.4h2.5V697.5z"/>
	<path class="st13" d="M1256.5,697.5h2.5c2.4,0,4.4-2,4.4-4.4v-25.9c0-2.4-2-4.4-4.4-4.4h-2.5V697.5z"/>
	<path class="st7" d="M1366,717.7v-74.9c-3,0.9-7,4.2-7,8.2v58.5C1359,713.4,1363,716.8,1366,717.7z"/>
	<path class="st7" d="M1224,642.8v74.9c3-0.9,7-4.2,7-8.2V651C1231,647,1227,643.7,1224,642.8z"/>
</g>
<g>
	<path class="st2" d="M660.6,720l-175.2,80c-4.9,2.2-10.6,0.1-12.8-4.8h0c-2.2-4.9-0.1-10.6,4.8-12.8l175.2-80
		c4.9-2.2,10.6-0.1,12.8,4.8l0,0C667.7,712.1,665.5,717.8,660.6,720z"/>
	<path class="st12" d="M638.8,768.9l-8.5,3.9c-4.2,1.9-9.3,0.1-11.2-4.2L588.6,702c-1.9-4.2-0.1-9.3,4.2-11.2l8.5-3.9
		c4.2-1.9,9.3-0.1,11.2,4.2l30.4,66.6C644.9,762,643,767,638.8,768.9z"/>
	<path class="st12" d="M659.6,751.3l-8.5,3.9c-4.2,1.9-9.3,0.1-11.2-4.2l-24.3-53.2c-1.9-4.2-0.1-9.3,4.2-11.2l8.5-3.9
		c4.2-1.9,9.3-0.1,11.2,4.2l24.3,53.2C665.7,744.3,663.9,749.4,659.6,751.3z"/>
	<path class="st12" d="M536.5,815.7l8.5-3.9c4.2-1.9,6.1-7,4.2-11.2l-30.4-66.6c-1.9-4.2-7-6.1-11.2-4.2l-8.5,3.9
		c-4.2,1.9-6.1,7-4.2,11.2l30.4,66.6C527.2,815.7,532.2,817.6,536.5,815.7z"/>
	<path class="st12" d="M509.5,819.8l8.5-3.9c4.2-1.9,6.1-7,4.2-11.2l-24.3-53.2c-1.9-4.2-7-6.1-11.2-4.2l-8.5,3.9
		c-4.2,1.9-6.1,7-4.2,11.2l24.3,53.2C500.2,819.9,505.3,821.8,509.5,819.8z"/>
	<path class="st13" d="M611,751.1l-2.3,1c-2.2,1-4.8,0-5.8-2.2l-10.7-23.5c-1-2.2,0-4.8,2.2-5.8l2.3-1L611,751.1z"/>
	<path class="st13" d="M541.1,783l2.3-1c2.2-1,3.2-3.6,2.2-5.8l-10.7-23.5c-1-2.2-3.6-3.2-5.8-2.2l-2.3,1L541.1,783z"/>
	<path class="st7" d="M649.1,755.8L618,687.7c-2.4,2.1-4.6,6.8-3,10.4l24.3,53.2C641,754.9,646,756.2,649.1,755.8z"/>
	<path class="st7" d="M488.9,746.7l31.1,68.1c2.4-2.1,4.6-6.8,3-10.4l-24.3-53.2C497,747.6,492,746.3,488.9,746.7z"/>
</g>
<g>
	<path class="st0" d="M1056.4,720.7l11.3,5.1l-15.9,35.2c-1.4,3.1-5.1,4.5-8.2,3.1l0,0c-3.1-1.4-4.5-5.1-3.1-8.2L1056.4,720.7z"/>
	<path class="st0" d="M1053.9,692.4c-13.2-5.9-28.6,0-34.6,13.2l0,0c-0.8,1.7,0,3.8,1.7,4.5l38,26.2c1.7,0.8,3.8,0,4.5-1.7l3.4-7.6
		C1073,713.8,1067.1,698.3,1053.9,692.4L1053.9,692.4z"/>
	<path class="st0" d="M1056.4,720.7l11.3,5.1l-15.9,35.2c-1.4,3.1-5.1,4.5-8.2,3.1l0,0c-3.1-1.4-4.5-5.1-3.1-8.2L1056.4,720.7z"/>
	<path class="st0" d="M1044.9,716l11.3,5.1l-19.2,42.5c-1.4,3.1-5.1,4.5-8.2,3.1l0,0c-3.1-1.4-4.5-5.1-3.1-8.2L1044.9,716z"/>
	<path class="st0" d="M1031.3,716.2l11.3,5l-19.1,42.6c-1.4,3.1-5,4.5-8.2,3.1l0,0c-3.1-1.4-4.5-5-3.1-8.2L1031.3,716.2z"/>
	<path class="st0" d="M1023.1,708.3l9.9,4.4l-18.1,40.2c-1.2,2.7-4.4,3.9-7.1,2.7l0,0c-2.7-1.2-3.9-4.4-2.7-7.1L1023.1,708.3z"/>
	<path class="st0" d="M1030.7,693.5l5.9,10.9l-24.7,13.4c-3,1.6-6.7,0.5-8.4-2.5l0,0c-1.6-3-0.5-6.7,2.5-8.4L1030.7,693.5z"/>
</g>
<path class="st2" d="M1041.3,411.8c0,0,9.2,8.9,16.3,10.4c7,1.6,8.2-5.7,2.7-8.2S1041.3,411.8,1041.3,411.8z"/>
<path class="st2" d="M1062.6,392.3c0,0,10.9,6.7,18.1,6.7s6.8-7.3,0.9-8.6S1062.6,392.3,1062.6,392.3z"/>
<path class="st2" d="M1056,441.6c0,0,6.3,12.7,13.1,17c6.8,4.2,10.6-2.9,5.9-7.6C1070.4,446.3,1056,441.6,1056,441.6z"/>
<path class="st2" d="M745.5,434.4c0,0-11.8,5.1-15.9,10.9s2.1,9.7,6.5,5.7S745.5,434.4,745.5,434.4z"/>
<path class="st2" d="M712.3,436.4c0,0-14.2,0.9-20.7,5.5c-6.5,4.6-1.5,10.9,4.7,8.4C702.4,447.8,712.3,436.4,712.3,436.4z"/>
</svg>
